# xmcd
#
# Track frame offsets: 
#        150
#        14917
#        32737
#        51827
#        65640
#        78560
#        91395
#        101515
#        111412
#        128692
#        145915
#        160507
#        178332
#        196762
#        209772
#        223287
#        239947
#        251097
#        264440
#
# Disc length: 3689 seconds
#
# Revision: 1
# Processed by: cddbd v1.5.2PL0 Copyright (c) Steve Scherf et al.
# Submitted via: ExactAudioCopy v1.0b1
#
DISCID=2b0e6713
DTITLE=Marvin Gaye - The Love Songs
DYEAR=2000
DGENRE=R&B
TTITLE0=I Heard It Through The Grapevine
TTITLE1=Let's Get It On
TTITLE2=Abraham, Martin And John
TTITLE3=You Are Everything (with Diana Ross)
TTITLE4=Stop, Look, Listen (To Your Heart) (with Diana Ross)
TTITLE5=You're All I Need To Get By (with Tammi Terrell)
TTITLE6=Ain't Nothing Like The Real Thing (with Tammi Terrell)
TTITLE7=Wherever I Lay My Hat (That's My Home)
TTITLE8=What's Going On
TTITLE9=Trouble Man
TTITLE10=Mercy Mercy Me (The Ecology)
TTITLE11=I Want You
TTITLE12=Got To Give Up (Part 1)
TTITLE13=Too Busy Thinking About My Baby
TTITLE14=It Takes Two (with Kim Weston)
TTITLE15=That's The Way Love Is
TTITLE16=Ain't No Mountain High Enough (with Tammi Terrell)
TTITLE17=How Sweet It Is (To Be Loved By You)
TTITLE18=You're A Wonderful One
EXTD=
EXTT0=
EXTT1=
EXTT2=
EXTT3=
EXTT4=
EXTT5=
EXTT6=
EXTT7=
EXTT8=
EXTT9=
EXTT10=
EXTT11=
EXTT12=
EXTT13=
EXTT14=
EXTT15=
EXTT16=
EXTT17=
EXTT18=
PLAYORDER=
